<svg width="55" height="78" viewBox="0 0 55 78" fill="none" xmlns="http://www.w3.org/2000/svg">
<rect x="4" y="4" width="47" height="70" stroke="#020202" stroke-width="8"/>
<path d="M24.2045 53.3913C22.8821 53.3913 21.7036 53.1619 20.669 52.7031C19.6345 52.2353 18.8158 51.5471 18.2131 50.6385C17.6193 49.7209 17.3224 48.5784 17.3224 47.2109C17.3224 46.0594 17.5339 45.0923 17.9567 44.3097C18.3795 43.527 18.9553 42.8973 19.6839 42.4205C20.4126 41.9437 21.2403 41.5838 22.1669 41.3409C23.1025 41.098 24.0831 40.9271 25.1087 40.8281C26.3142 40.7022 27.2857 40.5852 28.0234 40.4773C28.7611 40.3603 29.2964 40.1894 29.6293 39.9645C29.9621 39.7396 30.1286 39.4067 30.1286 38.9659V38.8849C30.1286 38.0303 29.8587 37.3691 29.3189 36.9013C28.7881 36.4335 28.0324 36.1996 27.0518 36.1996C26.0173 36.1996 25.1941 36.429 24.5824 36.8878C23.9706 37.3376 23.5658 37.9044 23.3679 38.5881L18.0511 38.1562C18.321 36.8968 18.8518 35.8082 19.6435 34.8906C20.4351 33.964 21.4562 33.2533 22.7067 32.7585C23.9661 32.2547 25.4235 32.0028 27.0788 32.0028C28.2304 32.0028 29.3324 32.1378 30.3849 32.4077C31.4465 32.6776 32.3866 33.0959 33.2053 33.6626C34.0329 34.2294 34.6851 34.9581 35.1619 35.8487C35.6387 36.7303 35.8771 37.7874 35.8771 39.0199V53H30.4254V50.1257H30.2635C29.9306 50.7734 29.4853 51.3447 28.9276 51.8395C28.3698 52.3253 27.6996 52.7076 26.9169 52.9865C26.1342 53.2564 25.2301 53.3913 24.2045 53.3913ZM25.8509 49.424C26.6965 49.424 27.4432 49.2576 28.0909 48.9247C28.7386 48.5829 29.2469 48.1241 29.6158 47.5483C29.9846 46.9725 30.169 46.3203 30.169 45.5916V43.392C29.9891 43.509 29.7417 43.617 29.4268 43.7159C29.121 43.8059 28.7746 43.8913 28.3878 43.9723C28.0009 44.0443 27.6141 44.1117 27.2273 44.1747C26.8404 44.2287 26.4896 44.2782 26.1747 44.3232C25.5 44.4221 24.9107 44.5795 24.407 44.7955C23.9032 45.0114 23.5118 45.3037 23.233 45.6726C22.9541 46.0324 22.8146 46.4822 22.8146 47.022C22.8146 47.8047 23.098 48.4029 23.6648 48.8168C24.2405 49.2216 24.9692 49.424 25.8509 49.424Z" fill="black"/>
</svg>
