<svg width="142" height="78" viewBox="0 0 142 78" fill="none" xmlns="http://www.w3.org/2000/svg">
<rect x="4" y="4" width="134" height="70" stroke="white" stroke-width="8"/>
<path d="M24.2045 53.3913C22.8821 53.3913 21.7036 53.1619 20.669 52.7031C19.6345 52.2353 18.8158 51.5471 18.2131 50.6385C17.6193 49.7209 17.3224 48.5784 17.3224 47.2109C17.3224 46.0594 17.5339 45.0923 17.9567 44.3097C18.3795 43.527 18.9553 42.8973 19.6839 42.4205C20.4126 41.9437 21.2403 41.5838 22.1669 41.3409C23.1025 41.098 24.0831 40.9271 25.1087 40.8281C26.3142 40.7022 27.2857 40.5852 28.0234 40.4773C28.7611 40.3603 29.2964 40.1894 29.6293 39.9645C29.9621 39.7396 30.1286 39.4067 30.1286 38.9659V38.8849C30.1286 38.0303 29.8587 37.3691 29.3189 36.9013C28.7881 36.4335 28.0324 36.1996 27.0518 36.1996C26.0173 36.1996 25.1941 36.429 24.5824 36.8878C23.9706 37.3376 23.5658 37.9044 23.3679 38.5881L18.0511 38.1562C18.321 36.8968 18.8518 35.8082 19.6435 34.8906C20.4351 33.964 21.4562 33.2533 22.7067 32.7585C23.9661 32.2547 25.4235 32.0028 27.0788 32.0028C28.2304 32.0028 29.3324 32.1378 30.3849 32.4077C31.4465 32.6776 32.3866 33.0959 33.2053 33.6626C34.0329 34.2294 34.6851 34.9581 35.1619 35.8487C35.6387 36.7303 35.8771 37.7874 35.8771 39.0199V53H30.4254V50.1257H30.2635C29.9306 50.7734 29.4853 51.3447 28.9276 51.8395C28.3698 52.3253 27.6996 52.7076 26.9169 52.9865C26.1342 53.2564 25.2301 53.3913 24.2045 53.3913ZM25.8509 49.424C26.6965 49.424 27.4432 49.2576 28.0909 48.9247C28.7386 48.5829 29.2469 48.1241 29.6158 47.5483C29.9846 46.9725 30.169 46.3203 30.169 45.5916V43.392C29.9891 43.509 29.7417 43.617 29.4268 43.7159C29.121 43.8059 28.7746 43.8913 28.3878 43.9723C28.0009 44.0443 27.6141 44.1117 27.2273 44.1747C26.8404 44.2287 26.4896 44.2782 26.1747 44.3232C25.5 44.4221 24.9107 44.5795 24.407 44.7955C23.9032 45.0114 23.5118 45.3037 23.233 45.6726C22.9541 46.0324 22.8146 46.4822 22.8146 47.022C22.8146 47.8047 23.098 48.4029 23.6648 48.8168C24.2405 49.2216 24.9692 49.424 25.8509 49.424ZM40.337 53V32.2727H45.8157V35.9297H46.0586C46.4904 34.7152 47.2101 33.7571 48.2177 33.0554C49.2253 32.3537 50.4308 32.0028 51.8342 32.0028C53.2556 32.0028 54.4656 32.3582 55.4641 33.0689C56.4627 33.7706 57.1284 34.7242 57.4613 35.9297H57.6772C58.1 34.7422 58.8647 33.7931 59.9712 33.0824C61.0868 32.3627 62.4047 32.0028 63.9251 32.0028C65.8593 32.0028 67.4291 32.6191 68.6346 33.8516C69.8491 35.075 70.4563 36.8113 70.4563 39.0604V53H64.7212V40.1939C64.7212 39.0424 64.4154 38.1787 63.8036 37.603C63.1919 37.0272 62.4272 36.7393 61.5096 36.7393C60.466 36.7393 59.6519 37.0722 59.0671 37.7379C58.4824 38.3946 58.19 39.2628 58.19 40.3423V53H52.6168V40.0724C52.6168 39.0559 52.3245 38.2462 51.7397 37.6435C51.1639 37.0407 50.4038 36.7393 49.4592 36.7393C48.8204 36.7393 48.2447 36.9013 47.7319 37.2251C47.2281 37.54 46.8278 37.9853 46.5309 38.5611C46.234 39.1278 46.0856 39.7936 46.0856 40.5582V53H40.337ZM74.9972 53V32.2727H80.4759V35.9297H80.7188C81.1506 34.7152 81.8703 33.7571 82.8778 33.0554C83.8854 32.3537 85.0909 32.0028 86.4943 32.0028C87.9157 32.0028 89.1257 32.3582 90.1243 33.0689C91.1229 33.7706 91.7886 34.7242 92.1215 35.9297H92.3374C92.7602 34.7422 93.5249 33.7931 94.6314 33.0824C95.7469 32.3627 97.0649 32.0028 98.5852 32.0028C100.519 32.0028 102.089 32.6191 103.295 33.8516C104.509 35.075 105.116 36.8113 105.116 39.0604V53H99.3814V40.1939C99.3814 39.0424 99.0755 38.1787 98.4638 37.603C97.852 37.0272 97.0874 36.7393 96.1697 36.7393C95.1262 36.7393 94.312 37.0722 93.7273 37.7379C93.1425 38.3946 92.8501 39.2628 92.8501 40.3423V53H87.277V40.0724C87.277 39.0559 86.9846 38.2462 86.3999 37.6435C85.8241 37.0407 85.0639 36.7393 84.1193 36.7393C83.4806 36.7393 82.9048 36.9013 82.392 37.2251C81.8883 37.54 81.4879 37.9853 81.1911 38.5611C80.8942 39.1278 80.7457 39.7936 80.7457 40.5582V53H74.9972ZM125.486 53V57.3587H107.336V53H125.486Z" fill="white"/>
</svg>
